<svg width="1200" height="300" viewBox="0 0 1200 300" xmlns="http://www.w3.org/2000/svg"><title>Demo Machine README Banner (Dark)</title><desc>A brand banner for Demo Machine, featuring the logo symbol, "demo-machine" title, "Demo as code" tagline, and subtle timeline elements, for dark backgrounds.</desc><rect x="0" y="0" width="1200" height="300" fill="#0d1117"/><g transform="translate(50 75)"><path d="M0 0L100 50L0 100V0Z" fill="#e44d26"/><rect x="110" y="25" width="10" height="50" fill="#e44d26"/></g><g transform="translate(250 90)" fill="#c9d1d9"><path d="M0 0V80H20V20H60V60H20V80H0V0Z"/><path d="M80 0H140V20H100V30H140V50H100V60H140V80H80V0Z"/><path d="M160 0H180V80H160V0ZM180 0H200V20H180V0ZM200 0H220V80H200V0ZM220 0H240V20H220V0Z"/><path d="M260 0H320V80H260V0ZM280 20H300V60H280V20Z"/><rect x="340" y="30" width="40" height="20"/><path d="M400 0H420V80H400V0ZM420 0H440V20H420V0ZM440 0H460V80H440V0ZM460 0H480V20H460V0Z"/><path d="M500 0H560V20H520V30H560V50H520V60H560V80H500V0Z"/><path d="M580 0H640V20H600V60H640V80H580V0Z"/><path d="M660 0H680V80H660V0ZM680 30H700V50H680V30ZM700 0H720V80H700V0Z"/><path d="M740 0H760V80H740V0Z"/><path d="M780 0H800V80H780V0ZM800 0H820V20H800V0ZM820 0H840V80H820V0Z"/><path d="M860 0H920V20H880V30H920V50H880V60H920V80H860V0Z"/></g><g transform="translate(250 200)" fill="#c9d1d9"><path d="M0 0V40H10V10H30V30H10V40H0V0ZM10 0H30V10H10Z"/><path d="M40 0H70V10H50V15H70V25H50V30H70V40H40V0Z"/><path d="M80 0H90V40H80V0ZM90 0H100V10H90V0ZM100 0H110V40H100V0ZM110 0H120V10H110V0Z"/><path d="M130 0H160V40H130V0ZM140 10H150V30H140V10Z"/><path d="M180 0H210V10H190V15H210V25H190V30H210V40H180V0Z"/><path d="M220 0H250V10H230V15H250V25H230V30H250V40H220V30H230V25H250V15H220V10H250V0Z"/><path d="M280 0H310V10H290V30H310V40H280V0Z"/><path d="M320 0H350V40H320V0ZM330 10H340V30H330V10Z"/><path d="M360 0V40H370V10H390V30H370V40H360V0Z"/><path d="M400 0H430V10H410V15H430V25H410V30H430V40H400V0Z"/></g><rect x="0" y="290" width="1200" height="5" fill="#f5a623"/><rect x="100" y="280" width="5" height="15" fill="#f5a623"/><rect x="300" y="280" width="5" height="15" fill="#f5a623"/><rect x="500" y="280" width="5" height="15" fill="#f5a623"/><rect x="700" y="280" width="5" height="15" fill="#f5a623"/><rect x="900" y="280" width="5" height="15" fill="#f5a623"/><rect x="1100" y="280" width="5" height="15" fill="#f5a623"/></svg>